<svg width="49" height="45" viewBox="0 0 49 45" fill="none" xmlns="http://www.w3.org/2000/svg">
<path id="Vector" d="M12.4688 8.01562V0.890625C12.4688 0.654417 12.5626 0.427883 12.7296 0.260858C12.8966 0.0938336 13.1232 0 13.3594 0C13.5956 0 13.8221 0.0938336 13.9891 0.260858C14.1562 0.427883 14.25 0.654417 14.25 0.890625V8.01562C14.25 8.25183 14.1562 8.47837 13.9891 8.64539C13.8221 8.81242 13.5956 8.90625 13.3594 8.90625C13.1232 8.90625 12.8966 8.81242 12.7296 8.64539C12.5626 8.47837 12.4688 8.25183 12.4688 8.01562ZM20.4844 8.90625C20.7206 8.90625 20.9471 8.81242 21.1141 8.64539C21.2812 8.47837 21.375 8.25183 21.375 8.01562V0.890625C21.375 0.654417 21.2812 0.427883 21.1141 0.260858C20.9471 0.0938336 20.7206 0 20.4844 0C20.2482 0 20.0216 0.0938336 19.8546 0.260858C19.6876 0.427883 19.5938 0.654417 19.5938 0.890625V8.01562C19.5938 8.25183 19.6876 8.47837 19.8546 8.64539C20.0216 8.81242 20.2482 8.90625 20.4844 8.90625ZM27.6094 8.90625C27.8456 8.90625 28.0721 8.81242 28.2391 8.64539C28.4062 8.47837 28.5 8.25183 28.5 8.01562V0.890625C28.5 0.654417 28.4062 0.427883 28.2391 0.260858C28.0721 0.0938336 27.8456 0 27.6094 0C27.3732 0 27.1466 0.0938336 26.9796 0.260858C26.8126 0.427883 26.7188 0.654417 26.7188 0.890625V8.01562C26.7188 8.25183 26.8126 8.47837 26.9796 8.64539C27.1466 8.81242 27.3732 8.90625 27.6094 8.90625ZM48.0938 22.2656V24.0469C48.0938 26.1728 47.2492 28.2116 45.746 29.7148C44.2428 31.218 42.204 32.0625 40.0781 32.0625H39.9891C38.5951 36.4126 35.7901 40.1736 32.018 42.75H40.0781C40.3143 42.75 40.5409 42.8438 40.7079 43.0109C40.8749 43.1779 40.9688 43.4044 40.9688 43.6406C40.9688 43.8768 40.8749 44.1034 40.7079 44.2704C40.5409 44.4374 40.3143 44.5312 40.0781 44.5312H0.890625C0.654417 44.5312 0.427883 44.4374 0.260858 44.2704C0.0938336 44.1034 0 43.8768 0 43.6406C0 43.4044 0.0938336 43.1779 0.260858 43.0109C0.427883 42.8438 0.654417 42.75 0.890625 42.75H8.95078C6.19907 40.866 3.94658 38.3414 2.38732 35.3935C0.828056 32.4457 0.00876033 29.163 0 25.8281V15.1406C0 14.9044 0.0938336 14.6779 0.260858 14.5109C0.427883 14.3438 0.654417 14.25 0.890625 14.25H40.0781C42.204 14.25 44.2428 15.0945 45.746 16.5977C47.2492 18.1009 48.0938 20.1397 48.0938 22.2656ZM38.4527 30.9937C38.9464 29.3165 39.1939 27.5765 39.1875 25.8281V16.0312H1.78125V25.8281C1.7888 29.3745 2.80086 32.8461 4.70023 35.841C6.5996 38.8358 9.30854 41.2313 12.5133 42.75H28.4555C30.8607 41.6121 32.9961 39.9752 34.7198 37.9482C36.4436 35.9212 37.7161 33.5505 38.4527 30.9937ZM46.3125 22.2656C46.3165 20.7657 45.7776 19.3149 44.7954 18.1813C43.8132 17.0477 42.454 16.3077 40.9688 16.098V25.8281C40.9649 27.3184 40.8006 28.8039 40.4789 30.259C42.0581 30.1573 43.5395 29.4588 44.6228 28.3052C45.7061 27.1517 46.3101 25.6293 46.3125 24.0469V22.2656Z" fill="white"/>
</svg>
